<svg width="32" height="32" viewBox="0 0 32 32" fill="none" xmlns="http://www.w3.org/2000/svg">
<g filter="url(#filter0_d_10473_4897)">
<path d="M22 8C22 6.4087 21.3679 4.88258 20.2426 3.75736C19.1174 2.63214 17.5913 2 16 2C14.4087 2 12.8826 2.63214 11.7574 3.75736C10.6321 4.88258 10 6.4087 10 8C10 15 7 17 7 17H25C25 17 22 15 22 8Z" stroke="#7126B5" stroke-width="2" stroke-linecap="round" stroke-linejoin="round"/>
<path d="M17.73 21C17.5542 21.3031 17.3019 21.5547 16.9982 21.7295C16.6946 21.9044 16.3504 21.9965 16 21.9965C15.6496 21.9965 15.3054 21.9044 15.0018 21.7295C14.6982 21.5547 14.4458 21.3031 14.27 21" stroke="#7126B5" stroke-width="2" stroke-linecap="round" stroke-linejoin="round"/>
<circle cx="21" cy="4" r="3.5" fill="#FA2C5A" stroke="white"/>
</g>
<defs>
<filter id="filter0_d_10473_4897" x="0" y="0" width="32" height="32" filterUnits="userSpaceOnUse" color-interpolation-filters="sRGB">
<feFlood flood-opacity="0" result="BackgroundImageFix"/>
<feColorMatrix in="SourceAlpha" type="matrix" values="0 0 0 0 0 0 0 0 0 0 0 0 0 0 0 0 0 0 127 0" result="hardAlpha"/>
<feOffset dy="4"/>
<feGaussianBlur stdDeviation="2"/>
<feComposite in2="hardAlpha" operator="out"/>
<feColorMatrix type="matrix" values="0 0 0 0 0 0 0 0 0 0 0 0 0 0 0 0 0 0 0.25 0"/>
<feBlend mode="normal" in2="BackgroundImageFix" result="effect1_dropShadow_10473_4897"/>
<feBlend mode="normal" in="SourceGraphic" in2="effect1_dropShadow_10473_4897" result="shape"/>
</filter>
</defs>
</svg>
