<?xml version="1.0" encoding="UTF-8" standalone="no"?><!DOCTYPE svg PUBLIC "-//W3C//DTD SVG 1.1//EN" "http://www.w3.org/Graphics/SVG/1.1/DTD/svg11.dtd"><svg width="100%" height="100%" viewBox="0 0 24 22" version="1.1" xmlns="http://www.w3.org/2000/svg" xmlns:xlink="http://www.w3.org/1999/xlink" xml:space="preserve" xmlns:serif="http://www.serif.com/" style="fill-rule:evenodd;clip-rule:evenodd;stroke-linejoin:round;stroke-miterlimit:2;"><rect id="Artboard1" x="0" y="0" width="24" height="22" style="fill:none;"/><g id="Artboard11" serif:id="Artboard1"><path d="M20.84,3.496c-0.511,-0.511 -1.117,-0.916 -1.785,-1.193c-0.667,-0.277 -1.383,-0.419 -2.105,-0.419c-0.723,0 -1.438,0.142 -2.106,0.419c-0.667,0.277 -1.273,0.682 -1.784,1.193l-1.06,1.06l-1.06,-1.06c-1.032,-1.032 -2.431,-1.611 -3.89,-1.611c-1.459,-0 -2.859,0.579 -3.89,1.611c-1.032,1.032 -1.612,2.431 -1.612,3.89c0,1.459 0.58,2.858 1.612,3.89l8.84,8.84l8.84,-8.84c0.511,-0.511 0.916,-1.117 1.193,-1.785c0.276,-0.667 0.419,-1.383 0.419,-2.105c-0,-0.723 -0.143,-1.438 -0.419,-2.105c-0.277,-0.668 -0.682,-1.274 -1.193,-1.785Z" style="fill:#e0e0e0;fill-rule:nonzero;"/></g></svg>